<svg width="20" height="14" viewBox="0 0 20 14" fill="none" xmlns="http://www.w3.org/2000/svg">
<g clip-path="url(#clip0)">
<path d="M19.0001 6.00397H3.41006L7.71006 1.71397C7.8033 1.62073 7.87726 1.51004 7.92772 1.38822C7.97818 1.2664 8.00415 1.13583 8.00415 1.00397C8.00415 0.87211 7.97818 0.741542 7.92772 0.61972C7.87726 0.497898 7.8033 0.387208 7.71006 0.29397C7.61682 0.200731 7.50613 0.12677 7.38431 0.0763099C7.26249 0.0258495 7.13192 -0.000122071 7.00006 -0.00012207C6.8682 -0.000122069 6.73763 0.0258495 6.61581 0.0763099C6.49399 0.12677 6.3833 0.200731 6.29006 0.29397L0.29006 6.29397C0.103809 6.48133 -0.000732422 6.73478 -0.000732422 6.99897C-0.000732422 7.26316 0.103809 7.51661 0.29006 7.70397L6.29006 13.704C6.48136 13.8678 6.72744 13.9534 6.97911 13.9437C7.23079 13.934 7.46953 13.8296 7.64762 13.6515C7.82572 13.4734 7.93005 13.2347 7.93977 12.983C7.94949 12.7313 7.86389 12.4853 7.70006 12.294L3.41006 8.00397H19.0001C19.2653 8.00397 19.5196 7.89861 19.7072 7.71108C19.8947 7.52354 20.0001 7.26919 20.0001 7.00397C20.0001 6.73875 19.8947 6.4844 19.7072 6.29686C19.5196 6.10933 19.2653 6.00397 19.0001 6.00397Z" fill="black"/>
</g>
<defs>
<clipPath id="clip0">
<rect width="20" height="14" fill="white"/>
</clipPath>
</defs>
</svg>
