<svg width="62" height="62" viewBox="0 0 62 62" fill="none" xmlns="http://www.w3.org/2000/svg">
<path d="M6.82843 8.82843C4.30857 6.30857 6.09324 2 9.65685 2H56C58.2091 2 60 3.79086 60 6V52.3431C60 55.9068 55.6914 57.6914 53.1716 55.1716L6.82843 8.82843Z" fill="#3E81FB"/>
<path d="M34.869 12.0711L26.8789 19.9195L25.7702 18.8108L26.9503 9.01711L21.4144 14.455L20.1133 13.154L28.1034 5.30542L29.2121 6.41416L28.0091 16.2303L33.5679 10.77L34.869 12.0711ZM33.7689 26.8095L29.0737 22.1143L37.0637 14.2658L41.6458 18.8479L40.3331 20.1373L37.1427 16.9468L35.1566 18.8976L38.0076 21.7488L36.695 23.0382L33.8439 20.187L31.7779 22.2164L35.0815 25.5201L33.7689 26.8095ZM52.2263 29.4284L53.5613 30.7633L43.3085 36.3492L42.0075 35.048L45.8711 27.4627L38.2174 31.2579L36.905 29.9456L42.5305 19.7325L44.0917 21.2938L39.9912 28.4839L47.4519 24.6539L48.8322 26.0343L44.9352 33.4506L52.2263 29.4284ZM50.8379 38.4029L49.4576 37.0225L54.6854 31.8875L56.0656 33.2677L50.8379 38.4029ZM47.3704 38.714C47.591 38.4972 47.8681 38.3896 48.2014 38.3911C48.5499 38.3927 48.8561 38.5254 49.1201 38.7893C49.3464 39.0156 49.4512 39.2939 49.4346 39.6242C49.4331 39.9546 49.322 40.2282 49.1014 40.445C48.8502 40.6917 48.5504 40.8218 48.2018 40.8352C47.8684 40.8488 47.5886 40.7424 47.3623 40.5161C47.0983 40.2521 46.9671 39.9474 46.9686 39.602C46.9853 39.2567 47.1192 38.9607 47.3704 38.714Z" fill="white"/>
</svg>
