<svg xmlns="http://www.w3.org/2000/svg" width="1000.01" height="618.03"><path fill="#ff5f00" d="M364.81 66.1H635.2v485.84H364.8z" class="st1"/><path fill="#eb001b" d="M381.98 309.02c0-98.72 46.35-186.27 117.6-242.92C447.2 24.9 381.11 0 309.01 0 138.2 0 0 138.2 0 309.02c0 170.81 138.2 309.01 309.02 309.01 72.1 0 138.2-24.9 190.55-66.1-71.24-55.79-117.6-144.2-117.6-242.91z" class="st2"/><path fill="#f79e1b" d="M1000 309.02c0 170.81-138.19 309.01-309 309.01-72.11 0-138.2-24.9-190.57-66.1 72.1-56.65 117.6-144.2 117.6-242.91 0-98.72-46.35-186.27-117.6-242.92C552.8 24.9 618.9 0 691 0c170.82 0 309.02 139.06 309.02 309.02z" class="st3"/></svg>