<svg xmlns="http://www.w3.org/2000/svg" width="400" height="120"><defs><linearGradient id="a" x1="100%" x2="0%" y1="62.9%" y2="62.9%"><stop offset="0%" stop-color="#1F5CD7"/><stop offset="100%" stop-color="#02AEFF"/></linearGradient></defs><g fill="none" fill-rule="evenodd"><path fill="#0F754E" d="M63.55 13.02c3.15-.02 12.5-.86 16.45 12.5 2.67 9 6.91 23.74 12.74 44.22h2.38A8809.7 8809.7 0 01108 25.52c4-13.5 14-12.5 18-12.5h30.86v96h-31.45V52.44h-2.11l-17.54 56.58H82.1L64.56 52.4h-2.1v56.62H31v-96zm138.48 0v56.61h2.5l21.34-46.55c4.14-9.27 12.96-10.06 12.96-10.06h30.44v96h-32.11V52.4h-2.51l-20.91 46.56c-4.14 9.22-13.38 10.06-13.38 10.06h-30.44v-96h32.1zm178.23 45.62c-4.48 12.69-18.55 21.78-34.12 21.78h-33.67v28.6h-30.54V58.64z"/><path fill="url(#a)" d="M316.61.02h-67.28c1.6 21.37 20 39.67 39.06 39.67h63C355.01 21.92 342.5.02 316.6.02z" transform="translate(31 13)"/></g></svg>