<svg xmlns="http://www.w3.org/2000/svg" width="81" viewBox="0 0 120 60"><g fill="none"><path fill="#1937ff" d="M62 0v60h58V0H62zM0 0v60h58V0H0z"/><path fill="#FFF" d="M117 3v54H65V3h52M31.42 42.47a4.88 4.88 0 01-.96-3.13c0-1.3.31-2.35.92-3.12a3.49 3.49 0 012.9-1.27h.1v-2.18h-.1c-1.97 0-3.5.64-4.52 1.9-.94 1.13-1.42 2.7-1.42 4.69 0 1.92.52 3.49 1.54 4.68a5.56 5.56 0 004.44 1.89h.1v-2.18h-.1a3.51 3.51 0 01-2.9-1.28zm-7.52 0a4.88 4.88 0 01-.96-3.13c0-1.3.3-2.35.92-3.12a3.49 3.49 0 012.9-1.27h.1v-2.18h-.1c-1.97 0-3.5.64-4.53 1.9-.93 1.13-1.41 2.7-1.41 4.69 0 1.92.52 3.49 1.53 4.68a5.56 5.56 0 004.44 1.89h.1v-2.18h-.1a3.51 3.51 0 01-2.89-1.28zm6.91-21.21v6.06h2.25V14.77h-2.25v4.37H29.6c-.5 0-.88-.12-1.12-.35a.88.88 0 01-.25-.68v-3.34h-2.25v3.58c0 .83.32 1.53.95 2.08a3.3 3.3 0 002.25.83h1.64zM52.3 32.47l-.16.18-4.49 4.81v-4.39H45.7v12.48h1.96v-5.12l2.85-3.1.28 8.22h2l-.48-13.07zm-14.7-5.15h2.25V16.85h1.9v-2.08h-6v2.08h1.86v10.47zm5.18 5.33l-4.49 4.81v-4.39h-1.96v12.48h1.96v-5.12l2.85-3.1.28 8.22h2l-.48-13.08-.16.18zm4.04-15.8h.81c.58 0 .98.18 1.22.55.2.3.33.9.42 1.7h-2.5l.05-2.25zm-.1 4.34h2.8l.64 6.13h2.26l-1.04-9.18c0-1.2-.36-2.1-1.07-2.68a3.58 3.58 0 00-2.3-.7h-3.34l-.4 12.56h2.24l.22-6.13zM7.58 16.85h2.78v10.47h2.25V14.77H5.34v12.55h2.24V16.85zM8.63 39.9c-.16.32-.35.48-.56.48-.2 0-.37-.14-.52-.43-.15-.3-.23-.74-.23-1.32v-3.67h.08c.46 0 .82.26 1.08.8.28.56.41 1.45.41 2.66a3.4 3.4 0 01-.26 1.48zM7.4 33.1H5.32v12.46h2v-3.62c.38.35.8.55 1.27.55.66 0 1.21-.36 1.64-1.07.48-.8.72-1.98.72-3.52a6.7 6.7 0 00-.58-2.85 3.08 3.08 0 00-2.96-1.95zm13.36-8.84c-.29.81-.7 1.2-1.25 1.2-.53 0-.93-.4-1.23-1.22a9.84 9.84 0 01-.46-3.24c0-1.33.16-2.42.46-3.25.28-.79.69-1.17 1.23-1.17.6 0 1.04.38 1.32 1.18.26.74.4 1.82.4 3.2 0 1.34-.16 2.45-.46 3.3zm1.74 1.42c.67-1.19 1-2.77 1-4.72a9.3 9.3 0 00-1.03-4.68c-.7-1.21-1.7-1.82-2.97-1.82-1.2 0-2.14.61-2.82 1.83a9.58 9.58 0 00-1 4.69c0 1.99.32 3.6.95 4.78.66 1.21 1.62 1.82 2.87 1.82 1.28 0 2.29-.64 3-1.9zm-5.62 16.88c-.27.82-.65 1.23-1.15 1.23-.48 0-.86-.42-1.12-1.25-.27-.87-.41-1.97-.41-3.27a11 11 0 01.4-3.27c.26-.8.64-1.2 1.13-1.2.55 0 .95.4 1.2 1.22.24.74.36 1.82.36 3.22 0 1.34-.14 2.46-.41 3.32zm1.48-7.98c-.63-1.2-1.51-1.8-2.63-1.8-1.06 0-1.9.61-2.51 1.81-.6 1.18-.9 2.75-.9 4.66 0 1.98.3 3.59.86 4.76.58 1.2 1.44 1.8 2.55 1.8 1.13 0 2.02-.63 2.66-1.89.6-1.17.9-2.75.9-4.68 0-1.92-.32-3.48-.93-4.66z"/><path fill="#1937ff" d="M79.44 19.66c.43.98 1.14 1.98 3.06 3.33.43.3.9.93.54 1.82-.36.88-1.04 2.14-.63 2.63.4.5 1.85.75 3.03.26 0 0 .25.77.68 1.26 0 0-.2.42-.88.2 0 0 .25.64-.09 1.31 0 0-.8-.14-1.13-.88 0 0-.32.58-.95.79 0 0-.53-.28-.41-1.35 0 0-.39.95-1.57 1.11 0 0-.68-.88.2-2.07 0 0-.63.58-1.78.3 0 0-.19-.6.86-1.44 0 0-1.18-.05-1.64-1.07 0 0 .5-.63 1.73-.5 0 0-1.14-.25-1.38-1.65 0 0 .81-.53 2.1.33 0 0-.22-.44-.77-.89-.54-.44-1.2-1.68-.97-3.5m4.74 14.07a3.42 3.42 0 01-.4-.7c.2 1.7.28 2.84 1.17 3.94 0 0 .54-.73.2-2.52a1.68 1.68 0 01-.49-.23s.2.72.08 1.46c0 0-.32-.25-.56-1.95m-1.54-.18a5.32 5.32 0 01-.42-.64c-.07.99-.33 3.58.52 4.39 0 0 .58-.43.78-4.21-.12.2-.33.43-.44.55 0 0 .14 1.2-.28 2.05 0 0-.42-.33-.16-2.14m-2.01 1.98c.7-.87.92-3.5.92-3.5l.3-.21a1.46 1.46 0 00.11-.1c0 .09 0 .19.02.28-.1 1.58-.23 3.2-.7 4.01-.48.8-1.34 1.2-1.34 1.2-.8-1.47.17-3.46.99-4.83l.3-.15c-.28 1.07-.83 2.33-.6 3.3m-2-4.54c-.01.17.02.3.04.38l.04.1c-.68.69-1.18 1.34-2.18 2.77-1 1.44-2.6 1.5-2.6 1.5a5.36 5.36 0 011.31-3.08c.86-.99 1.94-1.89 2.74-2.49.2.1.48.16.82.12l.08-.01a1.2 1.2 0 00-.21.42c-.6.36-2.36 1.28-3.08 2.75 0 0 1.12-.36 3.04-2.46m-1.27-1.45l.07-.12a1.07 1.07 0 01.07-.11c-.65.26-2.98 1.16-3.73 1.56a5.26 5.26 0 00-2.44 3.17s1.57.14 2.87-.96 2.8-2.64 3.45-3.14a1.45 1.45 0 01-.15-.17s-1.75 1.6-3.6 2.3c0 0 .39-.75 1.12-1.29.9-.65 1.56-.87 2.34-1.24m-1.33-1.09l.08-.18c-.77.16-2.69.4-3.55.66-.85.27-2.4.92-3.32 2.72 0 0 1.35.43 3.9-.8a22.46 22.46 0 013.83-1.62 1.8 1.8 0 01-.8-.25 10.01 10.01 0 01-3.73 1.05s.67-.49 1.36-.79a16.86 16.86 0 012.23-.79m.07-1.3c.25.12.44.18.76.22a1.97 1.97 0 00-.5.47c-.89.26-2.42.55-4.95.74-2.52.19-3.87-.29-3.87-.29a11.2 11.2 0 013.23-1.3c.95-.2 3.44-.17 4.53-.32.02 0 .15.12.36.25-.91.09-2.87.18-3.88.7 0 0 1.86.27 4.32-.47m-.2-1.5c.14-.07.29-.15.48-.22-1.28-.4-3.04-1.03-5.68-1.21a14 14 0 00-4.06.17s1.76 1.28 3.78 1.74c2.02.45 3.66.16 4.86.17a2.09 2.09 0 01.3-.4c-1.4.02-3.73-.36-4.56-.64 0 0 2.03-.44 4.89.4m0-1.55c0 .04.15.78.98 1.19-1.8-.8-5.33-1.27-7.23-2.09-2.57-1.1-3.04-2.47-3.04-2.47 2.22-.06 4.02.5 5.4.94 1.63.51 4.1 1.46 4.97 1.86-.33 0-.68.1-.98.31a26.78 26.78 0 00-2.87-1c-.86-.24-1.5-.3-2.04-.34 0 0 .76.51 2.01.93 1.24.4 1.78.47 2.8.67m-.14-2.02c.07.14.28.45.36.57-2.84-.49-5.96-2.7-6.92-4.06-.97-1.37-.7-3.42-.7-3.42.94.2 2.98 2 3.5 2.54a46.4 46.4 0 003.22 3.03l.35 1.03a117.57 117.57 0 00-2.76-2.2c-.54-.41-1.35-1-2.14-1.28 0 0 .73.98 1.33 1.46a15 15 0 001.95 1.37c.51.29.77.45 1.8.96"/><path fill="#1937ff" d="M83.78 30.26l.22-.23c.13.17.57.74.78 1.3.17.48.34 1.13.43 1.5.08.38.34 1.15.5 1.42 0 0-.7.09-1.2-.53-.5-.6-.68-1.2-.76-1.83a6.94 6.94 0 01.03-1.63m-1.1.1a.88.88 0 00.27.25l.1.05.09-.04c.09-.03.17-.06.24-.1.1.3.14.43.17.68.03.32.1.83-.03 1.25-.14.5-.44.82-.6 1.02 0 0-.45-.51-.58-.94a2.47 2.47 0 01-.02-1.48 2.1 2.1 0 01.36-.7m-1.55.05a2.26 2.26 0 001.07-.44c.06.17.15.4.08.72a1.7 1.7 0 01-.59.93c-.47.38-1.1.74-1.78.63 0 0-.16-.53 1.22-1.84m-.53-.89c.06.47.28.77.3.8-.17.2-.75 1.22-1.96 1.05 0 0-.33-.7.48-1.26.55-.38.8-.45 1.18-.59m.1-.88a2.55 2.55 0 01-1.25 0l-.14-.04-.04-.14c-.63.52-1.37.61-1.62 1.08 0 0 .3.6 1.12.5a2.68 2.68 0 001.85-1.05c.01-.09.05-.24.09-.35m-1.4-.73c.11-.18.2-.45.43-.73a4.21 4.21 0 00-1.64.02c-.75.15-1.5.33-1.89 1.5 0 0 .48.42 1.35.23a2.7 2.7 0 001.75-1.02m-.32-1.27a1.9 1.9 0 01-.48-.67l-.07-.14c-.64-.27-1.32-.41-1.97-.16-.66.25-.84.55-1 .8 0 0 .73.63 1.57.65.84.03 1.61-.22 1.95-.48m.2-1.37c.1-.04.23-.08.37-.1a2.35 2.35 0 01-.7-1.25c-.3.07-1 .07-1.31-.05a1.64 1.64 0 00-1.4.2s.16.85 1.24 1.14c1 .28 1.39.2 1.8.06m-.4-1.67l.15-.1c.02 0 .26-.16.67-.19-.34-.27-1.17-.98-1.76-1.32a8.33 8.33 0 00-2.23-.93s.5 1.37 1.1 1.92c.6.57 1.03.78 2.08.62m1.09-.63a4.1 4.1 0 01-.61-1.38c-.13-.46-.4-1.6-.57-1.89a3.34 3.34 0 00-1.93-1.64s-.3 1.34.28 2.4c.5.92 1.54 1.88 2.83 2.51m6.46 6.23c.15.15.26.23.52.37 0 0 .37.72-.08 1.6a22.94 22.94 0 00-1.01 2.29s-.24-.04-.51-1.42c-.19-.94-.41-1.17-.65-1.49.26.14.47.18.49.18l.18.04.08-.17a1.94 1.94 0 00.2-1.11c.41 0 .64-.2.72-.32l.02-.03.04.06"/><path fill="#1937ff" d="M76.45 18.61a7.28 7.28 0 000 .43l.03.32c-.69-.9-1.51-1.99-2.3-2.99a6.4 6.4 0 00-1.5-1.44 7.16 7.16 0 001.73 2.8c.54.5 1.32 1.36 2.08 1.88l.08.26c.06.24.15.48.27.71.18.32.41.64.69.94a17.07 17.07 0 00-.73-.34l-.24-.1a13.99 13.99 0 01-5.02-5.16c-.84-1.65-.49-3.57-.26-4.6.95.84 2.32 2.47 2.92 3.36.73 1.1 1.67 2.64 2.25 3.9v.04m29.42 7.03a2.9 2.9 0 00-.47-.23c1.28-.4 3.03-1.03 5.67-1.21a14 14 0 014.07.17s-1.77 1.28-3.79 1.74c-2.01.45-3.65.16-4.85.17-.08-.12-.17-.26-.31-.4 1.4.02 3.73-.36 4.56-.64 0 0-2.03-.44-4.88.4m0-1.55c0 .04-.15.78-.99 1.19 1.8-.8 5.34-1.27 7.24-2.09 2.57-1.1 3.03-2.47 3.03-2.47-2.22-.06-4.02.5-5.4.94-1.63.51-4.1 1.46-4.96 1.85.32.02.68.11.97.32 1.21-.48 1.78-.68 2.87-1a9.8 9.8 0 012.05-.34s-.76.51-2.02.93c-1.24.4-1.78.47-2.79.67m.14-2.02c-.07.14-.29.45-.37.57 2.84-.49 5.96-2.7 6.93-4.06.96-1.37.69-3.42.69-3.42-.94.2-2.97 2-3.5 2.54-.53.55-2.12 2.14-3.22 3.03l-.35 1.03c.95-.78 2.07-1.66 2.77-2.2.54-.41 1.34-1 2.14-1.28 0 0-.74.98-1.33 1.46a15 15 0 01-1.96 1.37c-.5.29-.77.45-1.8.96m-.69-3.46v.42l-.02.32c.68-.9 1.5-1.99 2.3-2.99.53-.69.99-1.1 1.5-1.44a7.16 7.16 0 01-1.74 2.8c-.54.5-1.32 1.36-2.08 1.88l-.07.26a2.91 2.91 0 01-.28.71 5.24 5.24 0 01-.69.94l.74-.34.23-.1a14 14 0 005.02-5.16c.84-1.65.5-3.57.27-4.6-.95.84-2.32 2.47-2.92 3.36a31.48 31.48 0 00-2.26 3.9v.04M79.14 31.64c-.87.89-2.7 2.88-2.52 5.04 0 0 1.7-.54 2.39-1.82.7-1.27 1.13-2.07 1.42-2.36a1.92 1.92 0 01-.56 0l-.15-.03c-.43.8-1.28 2.12-2.05 2.58 0 0-.2-1.07 2.06-3.23.03-.09.08-.19.14-.3-.2.07-.44.12-.7.11m23.17-11.97c-.43.98-1.14 1.98-3.06 3.33-.43.3-.9.93-.55 1.82.37.88 1.05 2.14.64 2.63-.41.5-1.86.75-3.04.26 0 0-.25.77-.68 1.26 0 0 .2.42.88.2 0 0-.24.64.1 1.31 0 0 .79-.14 1.13-.89 0 0 .32.59.95.8 0 0 .52-.28.4-1.35a2 2 0 001.57 1.11s.68-.88-.2-2.07c0 0 .63.58 1.79.3 0 0 .18-.6-.86-1.44 0 0 1.18-.05 1.63-1.07 0 0-.5-.63-1.72-.5 0 0 1.13-.25 1.38-1.65 0 0-.82-.54-2.1.33 0 0 .22-.45.76-.89.55-.44 1.2-1.68.98-3.5m-4.75 14.07c.18-.24.3-.47.4-.7-.2 1.7-.28 2.84-1.17 3.94 0 0-.53-.74-.19-2.52.15-.05.32-.12.48-.23 0 0-.2.72-.07 1.46 0 0 .32-.25.55-1.95m1.54-.18a5.08 5.08 0 00.42-.64c.08.99.33 3.58-.51 4.39 0 0-.58-.44-.79-4.22.12.22.34.44.44.56 0 0-.14 1.2.28 2.05 0 0 .42-.33.16-2.14m2.02 1.98c-.71-.87-.93-3.5-.93-3.5a3.69 3.69 0 01-.4-.32l-.02.3c.1 1.57.22 3.2.7 4 .47.8 1.33 1.2 1.33 1.2.8-1.47-.17-3.46-.98-4.84a2.65 2.65 0 01-.31-.14c.29 1.06.83 2.33.6 3.3m2-4.54a1.1 1.1 0 01-.08.48c.68.68 1.18 1.34 2.19 2.77 1 1.44 2.59 1.5 2.59 1.5a5.37 5.37 0 00-1.31-3.08 17.9 17.9 0 00-2.74-2.49c-.2.1-.47.16-.81.12a1.1 1.1 0 01-.08-.01c.1.14.17.29.2.42.61.36 2.37 1.27 3.08 2.75 0 0-1.11-.36-3.03-2.46m1.26-1.45l-.07-.12a1.07 1.07 0 00-.07-.11c.65.26 2.98 1.16 3.74 1.56.75.4 1.84 1.32 2.43 3.17 0 0-1.57.14-2.87-.96s-2.8-2.65-3.45-3.14a1.47 1.47 0 00.15-.17s1.76 1.6 3.61 2.3c0 0-.4-.75-1.13-1.29-.9-.65-1.56-.87-2.34-1.24m1.33-1.09a3.5 3.5 0 00-.08-.18c.77.16 2.7.4 3.55.66.86.27 2.4.92 3.33 2.72 0 0-1.35.43-3.9-.8a22.5 22.5 0 00-3.84-1.62c.4-.03.67-.17.81-.25 1.02.46 2.38 1.01 3.73 1.05 0 0-.67-.49-1.37-.79a16.74 16.74 0 00-2.23-.79m-.06-1.3c-.25.12-.44.18-.77.22.18.11.35.26.5.47.9.26 2.43.55 4.95.74 2.53.19 3.88-.29 3.88-.29a11.18 11.18 0 00-3.24-1.3c-.95-.2-3.44-.17-4.53-.32a2.98 2.98 0 01-.36.25c.92.09 2.88.18 3.89.7 0 0-1.87.26-4.32-.47"/><path fill="#1937ff" d="M98 30.26a2.34 2.34 0 01-.22-.23c-.14.17-.57.74-.79 1.3-.16.48-.34 1.13-.42 1.5a7.53 7.53 0 01-.5 1.42s.69.09 1.2-.53c.5-.6.68-1.2.75-1.83a7 7 0 00-.02-1.63m1.09.1a.9.9 0 01-.26.25l-.1.05-.1-.04a1.72 1.72 0 01-.23-.1c-.1.3-.15.43-.17.68-.03.32-.1.83.02 1.25.15.5.44.82.6 1.02 0 0 .46-.52.59-.94.13-.44.18-.96.02-1.48a2.08 2.08 0 00-.37-.7m1.56.05a2.27 2.27 0 01-1.08-.44c-.06.17-.15.4-.08.72.07.32.28.67.6.93.46.38 1.09.74 1.77.63 0 0 .16-.53-1.21-1.84m.52-.89c-.05.47-.27.77-.3.8.17.2.75 1.22 1.97 1.05 0 0 .32-.7-.48-1.26-.55-.38-.81-.45-1.19-.59m-.1-.88c.32.09.74.12 1.26 0l.13-.04.05-.14c.62.52 1.36.61 1.62 1.08 0 0-.31.6-1.12.5a2.68 2.68 0 01-1.85-1.05 2.54 2.54 0 00-.1-.35m1.4-.73c-.1-.18-.19-.45-.43-.73a4.22 4.22 0 011.65.02c.74.15 1.5.33 1.88 1.5 0 0-.47.42-1.34.23a2.7 2.7 0 01-1.75-1.02m.31-1.27c.2-.17.36-.39.49-.67l.06-.14c.65-.27 1.32-.41 1.98-.16.66.25.83.55 1 .8 0 0-.73.63-1.57.65a3.38 3.38 0 01-1.96-.48m-.2-1.37a2.17 2.17 0 00-.37-.1c.29-.27.57-.66.7-1.25.3.07 1.01.07 1.32-.05a1.6 1.6 0 011.4.2s-.16.85-1.24 1.14c-1.01.28-1.39.2-1.8.06m.39-1.67l-.15-.1a1.52 1.52 0 00-.67-.19c.35-.27 1.17-.98 1.76-1.32a8.3 8.3 0 012.24-.93s-.5 1.37-1.1 1.92c-.6.57-1.03.78-2.08.62m-1.1-.63c.26-.34.47-.82.62-1.38.12-.46.4-1.6.56-1.89.17-.29.77-1.32 1.93-1.64 0 0 .31 1.34-.27 2.4a6.63 6.63 0 01-2.83 2.51m-6.47 6.23a1.75 1.75 0 01-.51.37s-.37.72.07 1.6c.45.89.84 1.79 1.02 2.29 0 0 .24-.04.5-1.42.19-.94.42-1.17.66-1.49a1.92 1.92 0 01-.5.18l-.17.03-.09-.16a1.95 1.95 0 01-.19-1.11.86.86 0 01-.73-.32l-.02-.03-.04.06"/><path fill="#1937ff" d="M102.64 31.64c.86.89 2.69 2.88 2.52 5.04 0 0-1.7-.54-2.4-1.82-.7-1.27-1.12-2.07-1.42-2.36.2.02.38.02.56 0l.16-.03c.43.8 1.28 2.12 2.04 2.58 0 0 .2-1.07-2.05-3.23a2 2 0 00-.14-.3c.2.07.44.12.7.11M89.56 14.38c0-.16.6-.29 1.33-.29.73 0 1.32.13 1.32.29 0 .16-.6.29-1.32.29-.73 0-1.33-.13-1.33-.29m-4.48 1.56c0-.08.38-.15.85-.15s.85.07.85.15c0 .1-.38.16-.85.16s-.85-.07-.85-.16m6.07-.92a.26.26 0 01-.26.26.26.26 0 01-.26-.26c0-.15.11-.27.26-.27.14 0 .26.12.26.27m-1.68-.92a9.26 9.26 0 01-.72-2.14c0-.17.2-.28.37-.34.17-.06.33-.07.44.03.23.18.45 1.63.53 2.24a1.85 1.85 0 00-.62.2m.8-.23l.35-.02c-.08-.58-.27-1.54-.38-1.92-.12-.38-.27-.65-.5-.72 0 0 .18.53.28 1.07a24 24 0 01.25 1.6m-1.39 1.92c.49-.11.98-.65.98-.65-.78.12-.98.65-.98.65zm.73-.04c-.68.4-1.44.34-1.44.34.15-.28.29-.53.71-.84a2.27 2.27 0 011.39-.35c-.06.2-.34.65-.66.85zm-2.53 1.14v-.06c-.66.1-1.45.05-1.45.05.05.26.15.45.32.57.05-.55 1.13-.56 1.13-.56zm-2.2-.73s.84.32 1.68.28c.84-.05 2.39-.07 2.89-.32 0 0-.08.33-.48.52 0 0 .2 0 .42.18 0 0-.13.27-.48.41 0 0 .64.69 1.32.64 0 0-.31.4-1.02.25-.7-.16-.92-.56-1.04-.72 0 0 .09.39.05.54 0 0-.31-.02-.55-.33 0 0 .17.31.2.58 0 0-.19.02-.53-.2 0 0 .07.2.08.42 0 0-.8-.26-1.2-.64l.01.4s-1.26-.12-1.35-2.01zm-.2.13c.03.4.14.81.28 1.1 0 0-.5-.39-.62-.7-.12-.34-.15-.56.34-.4m-1 1.55a.2.2 0 00.22-.2.21.21 0 00-.21-.22.21.21 0 00-.2.21c0 .12.09.21.2.21zm1.22-.25c.33.16.63.53.63.53-.5.11-.73.26-.73.26a1.4 1.4 0 00-1.75.01c-.52-.3-.62-1.05-.36-1.44.26-.39.84-.32 1.12-.25.18.57.8.76 1.1.9zm.74.66s.35.48.6.69c0 0-1.3-.02-1.62 1.14 0 0-.44-.7-.12-1.17.35-.5.68-.56 1.14-.66"/><path fill="#1937ff" d="M87.06 18.53l.56.17v-.37c.12.03.28.07.4.08 0 0 .43.96.75 1.35 0 0 .02.21-.16.53 0 0-.24-.56-.66-1.02-.24-.25-.4-.38-.89-.74m-1.1-.2c.13.04.8.25 1.12.49.41.3.69.64.65 1.23 0 0-.33-.47-.7-.68a4 4 0 01-1.07-1.04m0-4.33c.13 0 .37.06.37.26s-.3.7-.4.92c-.08-.22-.4-.72-.4-.92 0-.2.25-.26.37-.26h.07m-.27 1.59c-.06-.3-.17-1.04-.34-1.2-.17-.16-.4-.17-.53-.17a.23.23 0 00-.2.3c.05.18.59 1 .66 1.1l.4-.03m.48 0c.06-.3.17-1.04.34-1.2.17-.16.41-.17.53-.17a.23.23 0 01.2.3c-.05.18-.59 1-.66 1.1l-.4-.03m.34-2.6h-.42v-.47h-.34v.47h-.42v.3h.42v.56h.34v-.56h.42V13m-5.07 3.07c0-.1 0-.19.02-.28a2.05 2.05 0 00.01-.59c-.3.12-.5.2-.92.88 0 0 .66-.42.9-.01m.57 1.09c0-.17.12-.71.25-1.1.17-.46.08-1.14-.13-1.55-.2-.4-.3-.77-.27-1.18 0 0-.39.14-.61.28-.04.48.23.95.36 1.23.15.31.12.73.09.99-.06.43.03.9.3 1.33m.05-3.65a.56.56 0 01.02-.26s.61-.62 1.13-.72a.69.69 0 01.63.16s-.19-.02-.46.21c-.28.23-.62.51-.88.58-.26.07-.31.05-.44.03m1.83-.77c.23.24.42.49.42.7a3 3 0 01-.4 1.02c-.13.22-.32.5-.3.84.01.17.13.35.26.5 0 0-.75-.19-.84-.67-.08-.43.1-.73.21-.96.12-.23.47-.75.55-.96.08-.2.13-.36.1-.47m4.4 5.4c.15.54.41 1.06.66 1.46.23.37.37.97.35 1.17 0 0 .34-.77.17-1.32a2.13 2.13 0 00-1.18-1.32m.85.19s.52 0 .76.17a2 2 0 01.72 1.22s-.52-.09-.78-.36a3.05 3.05 0 01-.7-1.03m-2.68.96a3.71 3.71 0 00-.49.1s.44.14.66.32c.19.16.35.41.43.82.1.58.43 1.2.53 1.4l.04-.02c-.06-.4.18-1.22.24-1.34 0 0-.34-.22-.5-.46a2.79 2.79 0 00-.9-.82m2.29 1.24c.12.3.47.84.3 1.4-.15.56-.5.8-.73 1.28 0 0-.17-.86-.13-1.52.03-.66.27-.92.56-1.16m.99.02s.51 1.02.6 1.43a1 1 0 01-.16.9c-.18.24-.47.5-.74 1 0 0-.32-.42-.36-.65a3.1 3.1 0 01.1-.99c.06-.22.33-.95.56-1.69m.26 3.27c-.11.13-.71.87-.8 1.09-.07.22-.21.62-.03.9.2.3.62.75 1 .94 0 0-.41-.65-.37-1.19.03-.34.28-.64.33-.85a1.5 1.5 0 00-.13-.89m-1.17-.4c.09.12.25.44.27.76.02.3-.02.55-.19 1a13.29 13.29 0 01-.67 1.48s-.28-.41-.44-.78c0 0 .44-.62.63-1.06.22-.52.31-1 .4-1.4m-.2-.25s-.2 1.46-1.03 2.55c-.57.73-1.03.99-1.33.99-.46 0-.92-.4-1.08-.85-.15-.45-.1-1.15.2-1.4 0 0 .27.88.86.91.66.04 1.52-.72 2.37-2.2"/><path fill="#1937ff" d="M87.96 22.54c.07.26.09.67 0 1.04-.07.29-.24.67-.57.88-.28.18-.95.22-1.2-.43 0 0 1.21.1 1.77-1.49m1.99 5.89c.16.44.76 1 .75 1.34 0 .9-.4 1.46-.48 1.76 0 0-.71-.58-.84-1.24-.06-.34.02-1.36.57-1.86m-.8.64c.09-.23.35-.88.65-1.1 0 0 .39-1.17-.85-1.88 0 0-.51.7-.65 1.35s.54 1.04.86 1.63m-1.55-2.94c-.2.25-.48.59-.7.7 0 0-.07.52-.03.86.06.51.38 1.04.52 1.42 0 0 .54-.72.6-1.15.07-.43.05-.78.08-.98 0 0-.3-.5-.47-.85m-1.43 2.5a4.24 4.24 0 01-.66-1.77s.62.34 1.13.1c0 0 .06.82-.03 1.1a1.1 1.1 0 01-.44.56m.14.18c.1-.08.35-.32.44-.44 0 0 .4.77.48.99 0 0-.2.05-.43-.11a3.24 3.24 0 01-.49-.44m1.88-.44c-.05.19-.7 1.12-.82 1.24a3.66 3.66 0 001.05 1.83s.4-.73.53-1.05c.13-.36.12-.72.06-.86-.14-.31-.61-.77-.82-1.16m.98 2.44c.14.3.58.8.65 1.19.05.3 0 .56-.07.77-.09.2-.35.62-.52.93 0 0-.6-.58-.73-.99a1.5 1.5 0 01.08-1.03c.14-.28.45-.58.6-.87m-1.7-.08c.15.35.52.7.6 1 .1.36.14.59-.03 1-.15.37-.33.59-.4.81 0 0-.48-.64-.56-.91-.08-.27-.1-.72 0-1s.27-.65.39-.9m2.39 2.46s-.84 1.04-.82 1.59c.03.68.47 1.14.53 1.56 0 0 .44-.5.6-.85.2-.39.34-.71.29-1.15-.05-.43-.17-.71-.6-1.15m-1.54-.1c.13.2.5.87.4 1.28-.1.4-.52.97-.65 1.22 0 0-.34-.7-.41-1.02-.07-.32 0-.84.66-1.48m8.35-17.14c0-.08-.38-.15-.85-.15s-.85.07-.85.15c0 .1.38.16.85.16s.85-.07.85-.16m-5.8-2.68c.06-.4.5-1.23.5-1.6a.51.51 0 00-.5-.52.51.51 0 00-.5.52c0 .37.43 1.2.49 1.6h.01m1.41.84a9.2 9.2 0 00.73-2.14c-.01-.17-.2-.28-.37-.34-.18-.06-.34-.07-.45.03-.23.18-.44 1.63-.52 2.24.22.04.36.07.61.2m-.8-.23a4.27 4.27 0 00-.34-.02c.07-.58.26-1.54.38-1.92.11-.38.26-.65.5-.72 0 0-.19.53-.29 1.07a27.75 27.75 0 00-.25 1.6m.41 1.27s.5.54.98.66c0 0-.2-.54-.98-.66zm-.4-.24c.27-.04.96.04 1.38.35a2 2 0 01.71.84s-.76.06-1.43-.34c-.32-.2-.6-.64-.66-.85zm4.31 2.55c.18-.12.28-.31.32-.57 0 0-.79.04-1.45-.05v.06s1.09 0 1.13.56zm-.28.73c.02-.15.02-.41.02-.41-.4.38-1.2.64-1.2.64 0-.22.08-.41.08-.41-.35.2-.54.18-.54.18.03-.26.21-.57.21-.57a.82.82 0 01-.55.33c-.04-.15.05-.54.05-.54-.12.16-.35.56-1.05.72-.7.15-1.02-.25-1.02-.25.69.05 1.33-.64 1.33-.64a.9.9 0 01-.48-.4c.2-.2.42-.2.42-.2-.4-.18-.49-.5-.49-.5.5.24 2.05.26 2.9.3.84.05 1.68-.27 1.68-.27-.1 1.89-1.36 2.02-1.36 2.02zm1.55-1.9a3.2 3.2 0 01-.27 1.1s.5-.38.62-.7c.12-.33.15-.55-.35-.4m1.2 1.35a.2.2 0 00-.2-.21.21.21 0 00-.21.21c0 .12.1.21.2.21a.2.2 0 00.2-.2zm-.33-.93c.28-.07.87-.14 1.13.25.26.4.15 1.14-.36 1.44 0 0-.8-.7-1.76 0 0 0-.22-.15-.73-.27 0 0 .3-.37.63-.53.3-.13.92-.32 1.1-.9zm-1.82 1.55s-.36.48-.6.69c0 0 1.29-.02 1.61 1.14 0 0 .45-.7.12-1.17-.35-.5-.67-.56-1.13-.66"/><path fill="#1937ff" d="M94.72 18.53l-.56.17v-.37c-.12.03-.28.07-.41.08 0 0-.42.96-.75 1.35 0 0-.02.21.17.53 0 0 .23-.56.65-1.02.24-.25.4-.38.9-.74m1.1-.2c-.14.04-.8.25-1.13.49-.4.3-.69.64-.64 1.23 0 0 .33-.47.69-.68.28-.16.8-.63 1.08-1.04M95.8 14c-.13 0-.37.06-.37.26s.31.7.4.92c.09-.22.4-.72.4-.92 0-.2-.24-.26-.37-.26h-.06m.27 1.59c.05-.3.16-1.04.34-1.2.16-.16.4-.17.52-.17a.23.23 0 01.2.3c-.05.18-.59 1-.66 1.1l-.4-.03m-.48 0c-.06-.3-.17-1.04-.34-1.2-.16-.16-.4-.17-.53-.17a.23.23 0 00-.2.3c.06.18.6 1 .66 1.1l.41-.03m-.34-2.6h.41v-.47H96v.47h.42v.3H96v.56h-.34v-.56h-.41V13m-5.02-2.8h.42v-.5h.33v.48h.42v.3H91v.56h-.33v-.56h-.42v-.3m10.08 5.88c0-.1 0-.19-.02-.28a2.2 2.2 0 010-.59c.3.12.5.2.91.88 0 0-.66-.42-.89-.01m-.59 1.09c0-.17-.11-.71-.25-1.1a2.23 2.23 0 01.13-1.55c.2-.4.3-.77.27-1.18 0 0 .4.14.62.28.03.48-.24.95-.37 1.22-.15.32-.12.74-.08 1 .05.43-.03.9-.32 1.33m-.04-3.65a.54.54 0 00-.01-.26s-.62-.62-1.14-.72a.7.7 0 00-.62.16s.18-.02.45.21c.28.23.62.51.88.58.26.07.32.05.44.03m-1.82-.77c-.24.24-.43.49-.43.7 0 .23.26.8.4 1.02.13.22.33.5.3.84a.88.88 0 01-.26.5s.76-.19.85-.67c.08-.43-.1-.73-.22-.96-.11-.23-.46-.75-.55-.96-.08-.2-.12-.36-.1-.47m-4.4 5.4a5.83 5.83 0 01-.66 1.46c-.23.37-.37.97-.35 1.17 0 0-.34-.77-.16-1.32.13-.42.5-1.05 1.17-1.32m-.85.19s-.51 0-.76.17c-.3.2-.6.67-.72 1.22 0 0 .53-.09.78-.36a3 3 0 00.7-1.03m2.68.96c.1 0 .36.07.5.1 0 0-.45.14-.67.32a1.4 1.4 0 00-.42.82c-.1.58-.44 1.2-.54 1.4l-.04-.02c.06-.4-.18-1.22-.24-1.34 0 0 .35-.22.5-.46.13-.17.34-.46.91-.82M93 20.5c-.12.3-.46.84-.3 1.4.16.56.51.8.73 1.28 0 0 .18-.86.14-1.52-.04-.66-.27-.92-.56-1.16m-2.11 1.57c.02-.33.76-1.12.72-1.55-.04-.43-.6-.73-.73-.8-.14.07-.7.37-.73.8-.04.43.7 1.22.72 1.55h.02m1.12-1.55s-.52 1.02-.61 1.43c-.1.4 0 .66.17.9s.47.5.74 1c0 0 .32-.42.36-.65.03-.22-.03-.76-.1-.99-.06-.22-.34-.95-.56-1.69m-1.13 3.97c.24-.21.45-.52.51-.7.07-.19.09-.46-.07-.66-.19-.25-.42-.52-.44-.75-.03.23-.26.5-.45.75-.15.2-.13.47-.07.65.07.19.28.5.51.7h.01m.86-.69c.11.13.72.87.8 1.09.08.22.22.62.03.9-.19.3-.61.75-.99.94 0 0 .4-.65.37-1.19-.03-.34-.29-.64-.34-.85-.05-.21-.01-.56.13-.89m1.18-.4a1.7 1.7 0 00-.28.76c-.02.3.03.55.2 1 .2.57.52 1.2.67 1.48 0 0 .28-.41.43-.78 0 0-.44-.62-.63-1.06-.22-.52-.3-1-.4-1.4m.21-.25s.2 1.46 1.03 2.55c.56.73 1.02.99 1.33.99.46 0 .91-.4 1.07-.85.15-.45.1-1.15-.2-1.4 0 0-.27.88-.85.91-.67.04-1.52-.72-2.38-2.2"/><path fill="#1937ff" d="M93.82 22.54a2.24 2.24 0 000 1.04c.07.29.24.67.56.88.28.18.95.22 1.2-.43 0 0-1.21.1-1.76-1.49m-2.42 3.88c.16-.25.3-.7.22-1.02-.1-.4-.31-.55-.44-.8-.1.1-.16.17-.29.25-.13-.08-.2-.15-.3-.25-.13.25-.33.4-.44.8-.08.32.07.78.22 1.02.2.3.34.37.52.46.17-.09.31-.15.51-.46zm-.51 2.92c.08-.39.87-1.13.8-1.54-.11-.61-.5-.48-.8-.74-.3.26-.7.13-.8.74-.07.4.7 1.15.8 1.54m.94-.91c-.17.44-.76 1-.76 1.34.01.9.4 1.46.49 1.76 0 0 .7-.58.83-1.24.06-.34-.01-1.36-.56-1.86m.79.64c-.09-.23-.35-.88-.65-1.1 0 0-.38-1.17.86-1.88 0 0 .5.7.64 1.35.14.65-.54 1.04-.85 1.63m1.55-2.94c.2.25.48.59.7.7 0 0 .07.52.03.86-.07.51-.39 1.04-.52 1.42 0 0-.55-.72-.6-1.15-.07-.43-.06-.78-.08-.98 0 0 .3-.5.47-.85m1.42 2.5c.16-.24.65-1.13.66-1.77 0 0-.61.34-1.12.1 0 0-.07.82.03 1.1.08.24.19.37.43.56m-.14.18a5.1 5.1 0 01-.44-.44s-.4.77-.47.99c0 0 .2.05.42-.11.22-.17.27-.21.5-.44m-1.88-.44c.05.19.7 1.12.81 1.24 0 0-.05.34-.3.82a3.64 3.64 0 01-.75 1s-.4-.72-.52-1.04a1.37 1.37 0 01-.07-.86c.14-.31.61-.77.83-1.16m-2.09 4.53c.1-.27.09-.58-.01-.79-.12-.24-.54-.84-.6-1.02-.05.18-.47.78-.59 1.02-.1.21-.1.52 0 .79.15.44.53.74.59 1h.01c.06-.26.44-.56.6-1zm1.1-2.09c-.14.3-.58.8-.64 1.19-.06.3-.01.56.07.77.08.2.34.62.52.93 0 0 .6-.58.73-.99.1-.31.06-.76-.08-1.03-.15-.28-.46-.58-.6-.87m1.7-.08c-.16.35-.53.7-.61 1-.1.36-.13.59.03 1 .15.37.33.59.4.81 0 0 .48-.64.56-.91.09-.27.11-.72.01-1s-.27-.65-.4-.9m-3.4 8.13c.04-.32.67-1.3.7-2.33.02-.52-.43-1.33-.69-1.64h-.01c-.26.3-.7 1.12-.69 1.64.03 1.04.66 2.01.7 2.33m1-5.67s.84 1.04.82 1.59c-.02.68-.47 1.14-.53 1.56 0 0-.44-.5-.6-.85-.19-.39-.33-.71-.28-1.15.05-.43.16-.71.6-1.15m1.53-.1c-.13.2-.5.88-.4 1.28.11.4.52.97.66 1.22 0 0 .33-.7.4-1.02.08-.32.01-.84-.66-1.48"/><path fill="#1937ff" d="M91.46 40.52c.05-.81.5-1.3.57-1.72.09-.46.06-.9-.29-1.43a13.17 13.17 0 01-.83 2.22l-.02.04-.02-.04a13.07 13.07 0 01-.84-2.22 1.8 1.8 0 00-.29 1.44c.08.41.52.9.57 1.7.05.81-.83 1.12-.83 1.12.3.11.64.16 1.18-.37.1-.1.17-.2.23-.3.05.1.13.2.23.3.54.53.87.48 1.17.37 0 0-.88-.3-.83-1.12m-2.78-5.36c.09.3.37.86.4 1.03.07.32-.02.7-.59 1.12 0 0-.37-.27-.51-.61-.14-.33-.06-.56.08-.73.14-.17.48-.56.62-.81m1.19 1.2c0 .16-.12 1.07-.37 1.52-.35.64-.88 1.11-1.33 1.11-.42 0-.51-.26-.72-.36 0 0 .1-.56.58-.7.58-.18 1.48-.9 1.84-1.58"/><path fill="#1937ff" d="M88.35 37.5c-.1-.07-.19-.12-.3-.26 0 0-.45.17-.82.42-.37.26-.74.7-.93.92 0 0 .55.15.9-.01 0 0 .13-.55.53-.8.08-.04.36-.13.62-.26m-.46-.47c-.09-.14-.27-.4-.23-.79 0 0-.78.5-1.01.7-.24.2-.72.71-.83.88 0 0 .59-.13 1.04-.28.5-.17.84-.4 1.03-.51m-1.33.87c-.41.15-1.36.3-1.76.43-.4.12-.68.33-1.06.75l.9.27s.49-.34 1.03-.56c.35-.14.52-.52.9-.9m-.88 2.87c.09-.1.2-.22.11-.46-.06-.18-.4-.37-.6-.47-.35-.17-1.29-.43-1.6-.52 0 0-.14.18-.23.38-.03.07.02.15.15.18.26.04.89-.08 1.04.02.17.11.11.26.11.41 0 0 .29-.18.47-.14.25.06.4.18.55.6m-.84-1.34c.07.02.43.14.8.37 0 0 .15-.06.23-.21.07-.15.4-.63.69-.7 0 0-.25-.02-.4-.07 0 0-.3.08-.52.17a4.7 4.7 0 00-.8.44m2.42-.62a.74.74 0 01-.37.09s-.83.59-.92 1.17c-.08.5.17.75.3.81.12.06.7.31 1.08-.49 0 0-.65.22-.82-.1-.17-.31.1-.77.28-.9.23-.18.64-.3.9-.26 0 0-.2-.2-.45-.32"/><path fill="#1937ff" d="M81.86 45.56c.1-.43.21-.89.4-1.3.38-.82 1.3-2.99 3.2-3.37.18-.03-.2-.49-.37-.47-.18.03-.52.25-.67.35v-.54c0-.08-.08-.11-.15-.11-.07 0-.54 0-.68.17-.44.52-1.17 1.91-1.59 2.95-.42 1.04-.7 1.36-1.14 1.2-.44-.16-.7-.68-1.47-.52-.27.05-.56.23-.79.5.06.13.14.29.5.29s1.04.15 1.43.43c.38.27.78.36 1.33.42m7.63-6.71c.04.33.2.65.37.97 0 0-.58 2.76-2.69 2.98 0 0 .05-.58.67-1.01.62-.44 1.56-1.11 1.49-2.14 0 0-.17.03-.47.42-.3.38-.95 1.5-1.97 1.5 0 0 .15-.52.6-.82.45-.3 1.02-.68 1.28-1.14.26-.46.53-.68.72-.76m-1 10.05l1.28 1.84.97-1.77-.34-.64-.68 1.25-.86-1.25-.37.57"/><path fill="#1937ff" d="M88.17 47.34l-2.95-4.25.49-.35-1.53-.6.03 1.7.51-.38 3.09 4.44.36-.56M77.64 37.25c.38-.42 1.02-.06 1.66.55.65.61 1.06 1.24.68 1.66-.35.39-1.02.06-1.66-.55-.65-.61-1.05-1.24-.68-1.66"/><path fill="#1937ff" d="M78.68 44.75a.98.98 0 01-.06-.05 1.75 1.75 0 01-.53-1.3c0-1 .78-1.82 1.75-1.82s1.76.82 1.76 1.81l-.02.36.43-.97a2.26 2.26 0 00-2.16-1.7c-.89 0-1.66.54-2.02 1.3a4 4 0 01.9-2.03c.37-.36 1-.48 1-.48-.41.07-.96-.2-1.58-.78-.58-.55-.89-1.03-.9-1.43.03.57.02.89-.14 1.35-.21.63-.8 1.8-.59 3.1.12.72.63 1.8 1.48 2.67.18.2.25.5.27.64 0 0 1.25 0 1.55.03 0 0 .3-.03.3-.22-.01-.19-.18-.24-.33-.24s-.77.02-1.1-.24m6.92.44a12 12 0 01-2.37.58 7 7 0 01-1.45.08.45.45 0 01-.03.26s.09.11.09.24a12.44 12.44 0 004.06-.74l-.3-.42m1.33-.06a8.62 8.62 0 003.05-3.01l.17-.3c-.26.12-.59.04-.59.04l-.08.13a8.05 8.05 0 01-2.84 2.72l.29.42m-7.06.47a4.17 4.17 0 00-.9.03c-.3.05-.65.12-.69.29-.03.17.08.34.23.6.1.15.33.06.46.01s.85-.44.96-.58c.12-.13.17-.31-.06-.35m.74.49a.53.53 0 00-.46-.05c-.2.08-.9.5-.96.71-.04.2.05.3.16.35.11.05.25.09.35.1a.54.54 0 00.44-.2c.1-.12.42-.54.47-.63.05-.1.08-.23 0-.28m.09.45a9.63 9.63 0 00-.43.54c-.03.06.02.15.11.14.1 0 .58-.06.86-.26s.47-.58.28-.71c-.2-.15-.5-.08-.82.3m.16-1.1c-.1-.03-.47-.13-.55 0-.1.16-.03.33.26.47.29.14.83.25.94.1.1-.15-.04-.41-.65-.57m12.23-10.3c-.1.3-.37.86-.4 1.03-.07.32.02.7.58 1.12 0 0 .37-.27.52-.61.13-.33.05-.56-.09-.73-.14-.17-.47-.56-.61-.81m-1.2 1.2c0 .16.12 1.07.37 1.52.36.64.88 1.11 1.33 1.11.43 0 .51-.26.72-.36 0 0-.1-.56-.58-.7a3.84 3.84 0 01-1.84-1.58m1.53 1.17c.1-.08.18-.13.3-.27 0 0 .45.17.82.42.37.26.73.7.93.92 0 0-.56.15-.91-.01 0 0-.13-.55-.52-.8-.1-.04-.37-.13-.62-.26m.46-.47c.08-.14.26-.4.22-.79 0 0 .78.5 1.02.7.23.2.72.72.83.89 0 0-.6-.14-1.05-.3-.5-.16-.84-.4-1.02-.5m1.32.87c.42.15 1.36.3 1.76.43.4.12.68.33 1.06.75l-.9.27s-.49-.34-1.03-.56c-.35-.14-.52-.52-.9-.9m.89 2.87c-.1-.1-.2-.22-.12-.46.06-.18.4-.37.61-.47.34-.17 1.28-.43 1.59-.52 0 0 .15.18.23.38.03.07-.01.15-.15.18-.26.04-.89-.08-1.04.02-.17.11-.1.26-.1.41 0 0-.3-.18-.48-.14-.25.06-.4.18-.54.6m.83-1.34c-.06.02-.43.14-.79.37 0 0-.16-.06-.23-.21-.08-.15-.4-.63-.7-.7 0 0 .25-.02.4-.07a4.74 4.74 0 011.33.61m-2.43-.62c.06.03.15.08.37.09 0 0 .83.59.92 1.17.09.5-.17.75-.3.81-.12.06-.7.31-1.07-.49 0 0 .64.22.81-.1.18-.31-.1-.77-.28-.9a1.3 1.3 0 00-.9-.25c.01 0 .21-.2.45-.33"/><path fill="#1937ff" d="M99.91 45.56c-.1-.43-.2-.89-.4-1.3-.37-.82-1.29-2.99-3.2-3.37-.18-.03.2-.49.38-.47.17.03.51.25.66.35v-.54c.01-.08.08-.11.15-.11.08 0 .54 0 .69.17a14.1 14.1 0 011.58 2.95c.42 1.04.7 1.36 1.14 1.2.44-.16.7-.68 1.47-.52.27.05.56.23.8.5-.07.13-.15.29-.51.29a2.9 2.9 0 00-1.42.43c-.39.27-.78.36-1.34.42m-7.62-6.71c-.04.33-.2.65-.38.97 0 0 .58 2.76 2.69 2.98 0 0-.04-.58-.67-1.01-.62-.44-1.55-1.11-1.49-2.14 0 0 .17.03.47.42.3.38.96 1.5 1.97 1.5 0 0-.15-.52-.6-.82A3.98 3.98 0 0193 39.61a1.74 1.74 0 00-.72-.76m-1.39 2.67c.12.37.92 1.52 1.27 1.85.35.33 1.2 1.2 1.65 1.64 0 0-1.3-.33-2.02-1 0 0-.52.3-.9.3h-.02c-.37 0-.89-.3-.89-.3-.73.67-2.02 1-2.02 1 .46-.44 1.3-1.3 1.65-1.64a8.04 8.04 0 001.27-1.85h.01"/><path fill="#1937ff" d="M90.9 44.59c.28 0 .55-.12.7-.19a3.4 3.4 0 01-.71 1.06 3.31 3.31 0 01-.72-1.06c.15.07.42.18.7.18h.03"/><path fill="#1937ff" d="M92 50.74l5.05-7.28.52.38.02-1.7-1.52.6.48.35-4.5 6.49-2.29-4.26-.28.44-2.03 3.16-.51-.35-.01 1.68 1.54-.63-.51-.35 1.75-2.72L92 50.74"/><path fill="#1937ff" d="M92.92 47.88l-.86-1.33-.67 1.25-.36-.66.98-1.82.28.44 1.01 1.57-.38.55m1.04.47l.37.57.5-.35.01 1.68-1.54-.63.51-.35-.23-.37.38-.55m10.17-11.1c-.38-.42-1.02-.06-1.66.55-.65.61-1.05 1.24-.68 1.66.35.39 1.02.06 1.67-.55.64-.61 1.05-1.24.67-1.66"/><path fill="#1937ff" d="M103.09 44.75a.74.74 0 00.06-.05c.34-.31.54-.79.54-1.3 0-1-.8-1.82-1.76-1.82a1.8 1.8 0 00-1.76 1.81c0 .14.03.36.03.36l-.43-.97a2.25 2.25 0 012.16-1.7c.88 0 1.65.54 2.01 1.3a4.06 4.06 0 00-.89-2.03c-.37-.36-1.01-.48-1.01-.48.42.07.97-.2 1.58-.78.59-.55.89-1.03.9-1.43-.03.57-.01.89.14 1.35.22.63.8 1.8.59 3.1-.11.72-.62 1.8-1.47 2.67-.18.2-.25.5-.27.64 0 0-1.26 0-1.55.03 0 0-.3-.03-.3-.22.01-.19.17-.24.32-.24s.78.02 1.11-.24m-8.26.37a8.66 8.66 0 01-3.05-3l-.17-.3c.26.12.6.04.6.04 0 .03.05.1.07.13a8.05 8.05 0 002.84 2.72l-.29.41m1.32.07c.81.3 1.62.46 2.38.58.5.08.98.1 1.45.08a.45.45 0 00.04.26s-.1.11-.1.24a12.43 12.43 0 01-4.06-.74l.3-.42m5.73.4c.15-.02.61 0 .9.04.3.05.65.12.7.29.03.17-.08.34-.24.6-.1.15-.33.06-.46.01a5.68 5.68 0 01-.96-.58c-.12-.13-.17-.31.06-.35m-.74.49a.54.54 0 01.46-.05c.2.08.91.5.96.71.04.2-.05.3-.16.35a1.4 1.4 0 01-.34.1.54.54 0 01-.45-.2c-.09-.12-.42-.54-.47-.63-.05-.1-.07-.23 0-.28m-.09.45c.1.12.4.48.43.54.03.06-.02.15-.1.14-.1 0-.59-.06-.87-.26s-.47-.58-.27-.71c.19-.15.49-.08.81.3m-.15-1.1c.09-.03.46-.13.54 0 .1.16.03.33-.26.47-.29.14-.83.25-.94.1-.1-.15.05-.41.66-.58"/></g></svg>