<svg xmlns="http://www.w3.org/2000/svg" width="1000" height="324.68" overflow="visible"><path fill="#1434cb" d="M651.19.5c-70.94 0-134.33 36.77-134.33 104.7 0 77.9 112.43 83.27 112.43 122.4 0 16.49-18.89 31.24-51.14 31.24-45.77 0-79.98-20.61-79.98-20.61l-14.64 68.54s39.4 17.41 91.73 17.41c77.55 0 138.58-38.57 138.58-107.66 0-82.31-112.9-87.53-112.9-123.86 0-12.9 15.5-27.05 47.67-27.05 36.29 0 65.9 15 65.9 15l14.32-66.21S696.6.5 651.19.5zM2.22 5.5L.5 15.49s29.84 5.46 56.72 16.36c34.6 12.49 37.07 19.76 42.9 42.35l63.51 244.83h85.14L379.93 5.5h-84.95l-84.27 213.17-34.4-180.7C173.17 17.3 157.2 5.5 137.64 5.5H2.22zm411.86 0l-66.63 313.53h81L494.85 5.5h-80.77zm451.76 0c-19.53 0-29.88 10.45-37.47 28.73L709.7 319.03h84.94l16.44-47.47h103.48l10 47.47h74.94L934.12 5.5h-68.28zm11.05 84.7l25.18 117.66H834.6L876.9 90.2z"/></svg>